<svg width="34" height="34" viewBox="0 0 34 34" fill="none" xmlns="http://www.w3.org/2000/svg">
<path d="M13.7315 15.2574C14.0512 15.0259 14.2055 14.6438 14.2055 14.1183C14.2165 13.8685 14.1651 13.6223 14.0548 13.3982C13.9556 13.2181 13.8087 13.0675 13.6286 12.961C13.442 12.8477 13.2346 12.7728 13.0187 12.7405C12.7836 12.6964 12.5447 12.6744 12.3096 12.678H9.72657V15.6064H12.5227C13.004 15.6101 13.4119 15.4925 13.7315 15.2574ZM14.1651 17.9028C13.805 17.6273 13.3237 17.4913 12.7248 17.4913H9.71922V20.9451H12.666C12.9415 20.9451 13.1951 20.9194 13.4412 20.868C13.6742 20.8224 13.8962 20.7326 14.0953 20.6034C14.2827 20.4822 14.4333 20.3168 14.5472 20.1037C14.6574 19.8906 14.7125 19.6187 14.7125 19.2917C14.7125 18.6413 14.5288 18.1821 14.1651 17.9028ZM17.1008 0.328857C8.0107 0.328857 0.640137 7.69942 0.640137 16.7895C0.640137 25.8796 8.0107 33.2502 17.1008 33.2502C26.1909 33.2502 33.5615 25.8796 33.5615 16.7895C33.5615 7.69942 26.1909 0.328857 17.1008 0.328857ZM20.279 10.8703H25.3642V12.1085H20.279V10.8703ZM17.1008 21.0811C16.863 21.5325 16.5233 21.9225 16.1088 22.2201C15.6752 22.5214 15.1939 22.7418 14.6831 22.8704C14.1488 23.0136 13.5976 23.0841 13.0444 23.0799H6.95986V10.547H12.8754C13.4743 10.547 14.0181 10.6021 14.5141 10.705C15.0065 10.8078 15.4253 10.9842 15.7781 11.223C16.1271 11.4619 16.4027 11.7815 16.5974 12.1783C16.7885 12.5715 16.8877 13.0638 16.8877 13.648C16.8877 14.28 16.7444 14.8018 16.4578 15.2243C16.1675 15.6468 15.7487 15.9885 15.1792 16.2568C15.9544 16.4772 16.5239 16.8704 16.8987 17.4215C17.2808 17.98 17.4682 18.6487 17.4682 19.435C17.4682 20.0743 17.347 20.6218 17.1008 21.0811ZM27.3446 19.1411H20.7898C20.7898 19.8539 21.0359 20.5373 21.407 20.9047C21.7818 21.2684 22.3182 21.4522 23.02 21.4522C23.5271 21.4522 23.957 21.3236 24.3244 21.07C24.6881 20.8165 24.9086 20.5483 24.9894 20.269H27.1866C26.8339 21.3603 26.2975 22.1392 25.57 22.6095C24.8498 23.0799 23.968 23.315 22.9429 23.315C22.2264 23.315 21.5834 23.1974 21.0065 22.9733C20.4517 22.7565 19.952 22.4258 19.5405 21.9996C19.1348 21.5619 18.8211 21.0471 18.6183 20.4858C18.3941 19.8649 18.2839 19.2109 18.2913 18.5532C18.2913 17.8734 18.4052 17.2415 18.6256 16.6536C19.0482 15.5109 19.9263 14.596 21.047 14.122C21.6459 13.8722 22.2889 13.7472 22.9392 13.7546C23.7108 13.7546 24.3795 13.9016 24.96 14.2029C25.5189 14.4906 26.0042 14.9029 26.3783 15.408C26.7494 15.9114 27.0103 16.4846 27.1756 17.1312C27.3336 17.7669 27.3887 18.4356 27.3446 19.1411ZM22.862 15.6285C22.4652 15.6285 22.1309 15.6983 21.8737 15.8342C21.6165 15.9702 21.4034 16.1392 21.2417 16.3339C21.0877 16.5219 20.9739 16.7395 20.9073 16.9732C20.8485 17.168 20.8081 17.3664 20.7934 17.5685H24.8535C24.7947 16.9328 24.5742 16.4625 24.2803 16.1318C23.9717 15.8048 23.4756 15.6285 22.862 15.6285Z" fill="#FBFBFB"/>
</svg>
