<svg width="31" height="31" viewBox="0 0 31 31" fill="none" xmlns="http://www.w3.org/2000/svg">
<path d="M27.3918 0.239746H3.57147C2.70999 0.239746 1.88379 0.58197 1.27463 1.19113C0.665466 1.80029 0.323242 2.62649 0.323242 3.48798L0.323242 27.3083C0.323242 28.1698 0.665466 28.996 1.27463 29.6052C1.88379 30.2144 2.70999 30.5566 3.57147 30.5566H12.8594V20.2495H8.59608V15.3982H12.8594V11.7006C12.8594 7.49481 15.3632 5.17164 19.1982 5.17164C21.0348 5.17164 22.9553 5.49917 22.9553 5.49917V9.62714H20.8392C18.7543 9.62714 18.1039 10.921 18.1039 12.2481V15.3982H22.7584L22.014 20.2495H18.1039V30.5566H27.3918C28.2533 30.5566 29.0795 30.2144 29.6887 29.6052C30.2978 28.996 30.6401 28.1698 30.6401 27.3083V3.48798C30.6401 2.62649 30.2978 1.80029 29.6887 1.19113C29.0795 0.58197 28.2533 0.239746 27.3918 0.239746Z" fill="#FBFBFB"/>
</svg>
