<svg width="31" height="31" viewBox="0 0 31 31" fill="none" xmlns="http://www.w3.org/2000/svg">
<path d="M15.1651 8.01638C10.8626 8.01638 7.39228 11.4867 7.39228 15.7892C7.39228 20.0916 10.8626 23.562 15.1651 23.562C19.4675 23.562 22.9379 20.0916 22.9379 15.7892C22.9379 11.4867 19.4675 8.01638 15.1651 8.01638ZM15.1651 20.8425C12.3847 20.8425 10.1118 18.5763 10.1118 15.7892C10.1118 13.0021 12.378 10.7358 15.1651 10.7358C17.9522 10.7358 20.2184 13.0021 20.2184 15.7892C20.2184 18.5763 17.9454 20.8425 15.1651 20.8425ZM25.0688 7.69843C25.0688 8.70639 24.257 9.51141 23.2558 9.51141C22.2479 9.51141 21.4429 8.69963 21.4429 7.69843C21.4429 6.69723 22.2547 5.88545 23.2558 5.88545C24.257 5.88545 25.0688 6.69723 25.0688 7.69843ZM30.2169 9.53847C30.1019 7.10989 29.5472 4.95867 27.768 3.18628C25.9956 1.41389 23.8444 0.859173 21.4158 0.737406C18.9128 0.595344 11.4106 0.595344 8.90761 0.737406C6.4858 0.852408 4.33457 1.40713 2.55542 3.17951C0.776266 4.9519 0.228314 7.10312 0.106546 9.5317C-0.0355154 12.0347 -0.0355154 19.5369 0.106546 22.0399C0.221549 24.4685 0.776266 26.6197 2.55542 28.3921C4.33457 30.1645 6.47903 30.7192 8.90761 30.841C11.4106 30.983 18.9128 30.983 21.4158 30.841C23.8444 30.726 25.9956 30.1712 27.768 28.3921C29.5404 26.6197 30.0951 24.4685 30.2169 22.0399C30.3589 19.5369 30.3589 12.0415 30.2169 9.53847ZM26.9833 24.7255C26.4556 26.0515 25.4341 27.0729 24.1015 27.6074C22.1058 28.3989 17.3704 28.2162 15.1651 28.2162C12.9598 28.2162 8.2176 28.3921 6.22873 27.6074C4.90282 27.0797 3.88133 26.0582 3.34691 24.7255C2.55542 22.7299 2.73807 17.9945 2.73807 15.7892C2.73807 13.5838 2.56219 8.84169 3.34691 6.85282C3.87457 5.52692 4.89606 4.50542 6.22873 3.971C8.22436 3.17951 12.9598 3.36216 15.1651 3.36216C17.3704 3.36216 22.1126 3.18628 24.1015 3.971C25.4274 4.49866 26.4489 5.52015 26.9833 6.85282C27.7748 8.84845 27.5921 13.5838 27.5921 15.7892C27.5921 17.9945 27.7748 22.7367 26.9833 24.7255Z" fill="#FBFBFB"/>
</svg>
