<svg width="62" height="57" viewBox="0 0 62 57" fill="none" xmlns="http://www.w3.org/2000/svg">
<path d="M45.5248 4.58016L5.93227 32.0021L0 23.441L31.0384 1.95132C35.7675 -1.32429 42.2561 -0.148968 45.5248 4.58016V4.58016ZM44.4538 12.1746L13.4224 33.6712C11.0578 35.3056 10.4667 38.5534 12.108 40.9179C13.7423 43.2825 16.9901 43.8736 19.3547 42.2324L50.3861 20.7357C52.7506 19.1014 53.3418 15.8536 51.7005 13.489C50.0662 11.1244 46.8184 10.5333 44.4538 12.1746V12.1746ZM53.7312 25.5622L18.4227 50.0215L21.3854 54.2986C23.0197 56.6632 26.2675 57.2543 28.6321 55.613L59.6635 34.1163C62.0281 32.482 62.6192 29.2342 60.9779 26.8696C59.3436 24.5051 56.0958 23.9139 53.7312 25.5552V25.5622Z" fill="#FBFBFB"/>
</svg>
